<svg width="158" height="135" viewBox="0 0 158 135" fill="none" xmlns="http://www.w3.org/2000/svg">
<path d="M157.904 52.8386C157.854 51.9968 156.932 50.8706 156.115 50.4771C153.158 49.0469 150.091 47.8311 147.032 46.6191C144.739 45.715 142.699 44.7564 142.469 41.8181C142.383 40.7387 141.742 39.632 141.129 38.6811C139.812 36.6508 139.992 34.7336 140.98 32.6253C142.449 29.4922 143.824 26.3085 145.008 23.0623C145.293 22.2791 144.973 20.919 144.418 20.2488C142.789 18.2847 140.941 16.4961 139.101 14.7191C137.589 13.2577 136.05 11.9795 133.632 13.1291C130.323 14.7035 126.939 16.1453 123.517 17.4508C122.587 17.8054 121.314 17.6924 120.329 17.3845C118.438 16.7922 116.625 15.9388 114.809 15.1243C113.586 14.5749 112.469 14.0176 111.918 12.5134C110.593 8.90099 109.105 5.34701 107.495 1.85149C107.14 1.07991 106.046 0.210896 105.241 0.160236C101.869 -0.0501968 98.4784 0.0589165 95.0952 0.000462969C93.677 -0.0229184 92.966 0.842194 92.4893 1.94502C91.3447 4.59491 90.0359 7.20973 89.2428 9.96874C88.6607 12.0029 87.4848 12.1705 85.8048 12.1666C71.9983 12.1393 58.1879 12.151 44.3813 12.151C44.3813 12.1861 44.3813 12.225 44.3813 12.2601C30.4459 12.2601 16.5104 12.2484 2.57103 12.2718C0.164462 12.2718 -0.339512 13.1096 0.191809 15.4634C0.871588 18.4796 1.66076 21.4256 3.21175 24.1496C5.21201 27.6685 7.86862 30.5717 11.1894 32.8358C15.8775 36.0351 21.1673 36.7716 26.7501 36.7483C50.7181 36.6469 74.6862 36.6508 98.6542 36.7327C101.354 36.7405 104.217 37.0132 106.71 37.9485C112.672 40.1775 117.18 44.0238 119.645 50.2354C121.974 56.0964 121.692 61.7664 118.868 67.0584C115.02 74.2715 108.722 78.223 100.361 78.449C96.9782 78.5387 93.5871 78.4685 90.2 78.4646C84.457 78.4646 78.7141 78.4529 72.9711 78.4646C72.975 75.7641 72.9789 73.0635 72.9906 70.3629C81.7301 70.3629 90.4734 70.3824 99.2129 70.4292C102.385 70.4448 105.124 69.6888 107.784 67.9819C111.121 65.8425 113.813 59.7283 113.219 56.6225C111.855 49.46 106.878 44.8694 99.3067 44.7798C87.4613 44.6395 75.6121 44.7447 63.7628 44.7408C61.2234 44.7408 58.684 44.7408 56.1446 44.7408C46.5769 44.7408 37.0053 44.733 27.4376 44.7447C24.5154 44.7447 24.0661 45.1344 24.488 48.0649C25.1405 52.5853 26.7305 56.8407 29.5668 60.4336C34.1925 66.2907 40.1151 69.4978 47.245 70.246C47.2215 78.7257 47.2762 87.2093 47.2723 95.6889C47.2723 98.2219 47.2723 100.755 47.2723 103.288C47.2723 112.831 47.2645 122.379 47.2762 131.922C47.2762 134.837 47.6669 135.285 50.6048 134.864C55.1367 134.214 59.4029 132.628 63.0049 129.799C69.8222 124.444 73.0649 117.344 73.018 108.642C73.0063 106.803 73.0023 104.967 72.9984 103.128H88.2231C89.7585 106.273 91.0165 109.562 92.3253 112.812C92.8527 114.121 93.5442 115.22 95.0131 115.24C98.5097 115.286 102.01 115.255 105.499 115.049C106.194 115.006 107.128 114.152 107.441 113.451C108.847 110.287 110.023 107.021 111.367 103.83C112.035 102.24 112.762 100.806 114.809 100.264C116.961 99.6949 118.938 98.4791 121.021 97.6179C121.528 97.4075 122.239 97.2672 122.704 97.4581C125.966 98.7987 129.233 100.139 132.405 101.663C135.757 103.272 135.772 103.42 138.546 100.86C140.554 99.0052 142.32 96.8853 144.332 95.0303C145.496 93.9587 145.344 92.8169 144.871 91.679C143.496 88.3783 141.953 85.1478 140.586 81.8471C139.859 80.0935 140.031 78.3594 141.008 76.6214C141.789 75.2341 142.113 73.5935 142.863 72.1828C143.402 71.1657 144.125 69.9538 145.086 69.5095C148.29 68.0326 151.681 66.961 154.904 65.523C156.127 64.9774 157.963 64.8099 157.959 62.764C157.951 59.4516 158.092 56.1315 157.893 52.8347L157.904 52.8386Z" fill="#F2ECC8"/>
</svg>
