<svg width="1663" height="584" viewBox="0 0 1663 584" fill="none" xmlns="http://www.w3.org/2000/svg">
<path fill-rule="evenodd" clip-rule="evenodd" d="M458.3 129.823C458.422 200.185 400.107 259.177 329.714 259.909C258.32 260.666 198.322 201.405 198.297 130.092C198.248 59.6815 256.588 0.688991 326.932 0.005869C398.423 -0.677253 458.178 58.364 458.3 129.799V129.823ZM394.178 130.751C394.422 90.8123 366.46 61.1941 328.396 61.1209C290.357 61.0477 262.029 90.6903 262.176 130.409C262.322 168.957 289.43 197.648 326.786 198.721C364.679 199.819 393.91 170.347 394.178 130.751ZM645.714 91.837C642.041 105.264 638.322 118.679 634.604 132.093C625.552 164.744 616.502 197.389 608.114 230.194C603.625 247.735 596.891 258.47 576.37 255.298C571.768 254.589 566.993 254.733 562.288 254.874C547.889 255.306 534.159 255.717 528.108 231.609C516.334 184.655 502.333 138.253 488.331 91.8491L488.328 91.8413C482.134 71.3137 475.94 50.7857 469.939 30.2096C468.421 24.9858 467.285 19.6527 465.968 13.4721L465.968 13.4714L465.968 13.4702C465.317 10.4144 464.622 7.15153 463.815 3.59227C469.214 3.59227 474.482 3.42627 479.638 3.26386C492.049 2.87285 503.801 2.50258 515.127 4.51936C521.788 5.71482 529.596 16.2788 531.817 24.0371C534.844 34.6538 537.79 45.2931 540.742 55.9543L540.744 55.9625L540.746 55.9698L540.748 55.9768L540.749 55.9801C550.454 91.0264 560.224 126.31 573.15 161.808C576.953 148.698 580.767 135.593 584.58 122.488L584.587 122.463L584.592 122.444C592.81 94.2044 601.026 65.969 609.139 37.6996C618.509 5.1049 639.395 -6.87414 670.992 4.64135C676.799 6.7639 681.46 16.3764 683.607 23.4516C685.893 31.0077 688.155 38.5703 690.419 46.138L690.423 46.1505L690.426 46.1604L690.429 46.1713L690.431 46.1797C701.964 84.731 713.537 123.413 728.38 162.028C731.792 149.297 735.385 136.6 738.979 123.903C747.464 93.921 755.95 63.9347 762.052 33.4789C767.103 8.27653 778.156 -0.0673164 802.092 3.20191C808.559 4.08365 815.168 3.88349 822.723 3.65465C826.457 3.54157 830.421 3.42149 834.714 3.42149C829.857 19.9993 825.051 36.4379 820.278 52.7629L820.273 52.7795C801.312 117.63 782.876 180.685 763.833 243.539C762.32 248.516 753.683 253.932 747.827 254.591C697.726 260.249 697.588 259.739 684.23 210.407L684.217 210.359C676.751 182.725 669.095 155.151 661.44 127.578L661.436 127.565L661.429 127.538L661.423 127.519C658.101 115.553 654.779 103.587 651.473 91.6174C650.521 91.654 649.569 91.6845 648.618 91.715C647.666 91.7455 646.715 91.776 645.763 91.8126L645.714 91.837ZM1223.61 253.831L1223.62 253.829C1224.76 253.518 1226.47 253.055 1229.14 252.346C1222.51 241.663 1216.06 231.253 1209.72 221.004L1209.53 220.704L1209.36 220.433C1197.42 201.158 1185.83 182.449 1174.11 163.565C1175.43 162.476 1176.59 161.483 1177.66 160.566L1177.66 160.565C1179.44 159.037 1180.97 157.718 1182.61 156.514C1214.18 133.166 1225.82 95.643 1213.67 56.3146C1204.1 25.379 1177.26 6.27596 1138.78 4.44617C1127.78 3.92364 1116.73 3.94827 1105.69 3.9729C1092.5 4.00231 1079.32 4.03172 1066.19 3.12872C1046.97 1.81127 1041.94 9.32561 1042.23 27.5747C1042.92 69.6056 1042.79 111.649 1042.67 153.696V153.698V153.699V153.701V153.702V153.704V153.706V153.707V153.709V153.71V153.712C1042.62 170.138 1042.58 186.564 1042.58 202.991C1042.58 240.074 1061.06 257.104 1098.04 254.078C1098.91 254.005 1099.73 253.44 1101.25 252.402C1102.25 251.723 1103.54 250.841 1105.33 249.76V171.177C1106.57 170.744 1107.83 170.319 1109.08 169.892L1109.09 169.891L1109.09 169.889L1109.12 169.878C1110.05 169.565 1110.97 169.251 1111.89 168.932C1114.71 173.411 1117.78 177.789 1120.84 182.166C1127.57 191.76 1134.29 201.347 1138.3 211.969C1153.47 252.127 1182.73 261.227 1221.01 254.493C1221.49 254.407 1221.96 254.278 1223.61 253.831L1223.61 253.831ZM1122.45 115.138L1122.45 115.138C1117.15 117.075 1111.56 119.119 1105.7 121.528V54.5093C1110.99 56.2122 1116.18 57.6376 1121.2 59.0173L1121.2 59.0178C1133.16 62.3028 1144.17 65.3284 1153.35 71.2213C1158.3 74.393 1159.06 96.4968 1154.28 100.108C1145.55 106.698 1134.81 110.624 1122.45 115.138ZM62.4885 169.201V254.81C57.4925 254.81 52.5916 254.888 47.7663 254.964C34.7994 255.168 22.3789 255.363 10.1268 254.03C6.27161 253.615 0.659684 243.368 0.610884 237.61C0.245892 196.356 0.220123 155.102 0.194354 113.848C0.175335 83.3989 0.156315 52.9495 0.000892145 22.5001C-0.0723069 8.88647 4.34404 2.76276 18.7399 3.2995C30.7191 3.75279 42.7193 3.75867 54.7211 3.76455C68.5583 3.77133 82.3976 3.77812 96.2089 4.47057C145.545 6.95909 173.263 35.1623 175.069 83.2248C176.899 132.019 149.791 163.467 100.308 169.005C92.6615 169.855 84.9055 169.654 76.1976 169.429C71.9015 169.318 67.3736 169.201 62.5129 169.201H62.4885ZM63.2205 121.919C69.1758 119.392 74.8783 117.268 80.269 115.26C92.6799 110.638 103.438 106.63 111.825 99.7417C116.68 95.7405 114.899 72.734 109.19 69.0256C100.594 63.4098 89.7747 61.1943 78.2254 58.8293C73.3175 57.8242 68.2777 56.7922 63.2205 55.4607V121.919ZM998.729 154.172V99.9368H998.705H926.067V58.4616H959.934C991.328 58.4616 1005.94 42.4651 1003.78 10.4723C1003.72 9.58296 1003.15 8.7402 1002.14 7.2536C1001.51 6.334 1000.72 5.16803 999.778 3.59226C990.632 3.59226 981.4 3.56536 972.102 3.53827C940.82 3.44714 908.793 3.35383 876.779 4.27538C871.802 4.42176 862.969 13.8391 862.896 19.0357C861.969 92.5689 862.091 166.078 862.676 239.611C862.725 244.661 868.41 254.005 871.655 254.078C906.869 254.863 942.082 254.812 976.916 254.762H976.921H976.925H976.93H976.934H976.939H976.943H976.948H976.953C985.456 254.749 993.937 254.737 1002.39 254.737V199.575H926.555V154.172H998.729ZM754.073 464.529C754.073 453.711 754.15 442.889 754.227 432.067C754.413 405.741 754.599 379.411 753.683 353.131C753.024 334.199 757.489 326.221 778.327 327.002C782.167 327.143 785.635 327.244 788.767 327.336C804.384 327.792 811.642 328.004 814.936 331.725C817.796 334.955 817.669 340.83 817.432 351.805C817.345 355.843 817.242 360.57 817.269 366.11C817.397 391.862 817.353 417.614 817.309 443.366C817.245 481.096 817.18 518.825 817.659 556.555C817.879 573.95 812.047 577.829 794.943 579.879C759.124 584.148 738.384 572.047 724.525 538.038C710.569 503.76 690.293 472.068 668.162 440.083V579.001C662.862 579.001 657.774 579.113 652.851 579.222H652.85C640.774 579.489 629.683 579.735 618.85 578.244C613.824 577.537 606.333 567.9 606.26 562.264C605.406 489.609 605.357 416.93 606.382 344.275C606.433 340.369 611.124 336.51 615.778 332.682L615.779 332.682C617.84 330.986 619.894 329.297 621.534 327.612C621.782 327.364 622.318 327.421 622.881 327.481C623.259 327.521 623.65 327.563 623.974 327.514C658.841 321.732 683.192 330.637 697.417 367.55C706.589 391.339 719.316 413.743 732.042 436.146L732.043 436.147C737.667 446.048 743.291 455.949 748.608 465.968C749.524 465.736 750.434 465.504 751.344 465.272L751.396 465.259C752.286 465.032 753.177 464.805 754.073 464.578V464.529ZM133.638 484.754H190.196C190.806 485.815 191.423 486.877 192.039 487.938C192.655 488.999 193.271 490.061 193.881 491.122C191.994 493.434 190.232 495.923 188.469 498.412C184.672 503.775 180.875 509.138 175.825 512.738C137.64 539.892 77.1039 512.616 71.4432 466.09C68.1004 438.668 74.1272 414.246 98.234 397.729C122.634 381.017 149.449 380.09 173.654 395.387C190.148 405.829 198.688 401.511 208.594 388.727C212.713 383.419 217.303 378.491 221.805 373.658L221.806 373.657C223.863 371.448 225.902 369.259 227.87 367.062C194.125 325.172 137.762 312.851 85.9366 334.516C26.4014 359.426 -5.83064 427.104 12.1519 489.487C30.2809 552.334 93.4273 592.785 156.818 582.172C221.331 571.364 257.003 521.862 253.514 448.841C252.953 437.472 251.611 429.519 237.239 429.836C225.001 430.112 212.755 430.067 200.511 430.022H200.51H200.509H200.509H200.508H200.507H200.506C183.53 429.959 166.558 429.896 149.62 430.69C144.081 430.958 135.395 438.887 134.37 444.426C132.74 453.174 133.04 462.273 133.362 472.027C133.498 476.145 133.638 480.38 133.638 484.754ZM861.237 453.867C861.237 444.824 861.195 435.779 861.153 426.734V426.73C861.029 399.93 860.904 373.131 861.871 346.373C862.091 339.981 870.289 328.563 874.974 328.49C881.745 328.365 888.544 328.165 895.354 327.965H895.355C924.497 327.107 953.846 326.244 982.088 331.247C1044.65 342.323 1083.32 398.51 1077.54 461.308C1071.07 531.45 1026.23 576.073 958.421 578.805C945.76 579.32 933.075 579.2 920.392 579.08C907.241 578.956 894.093 578.832 880.976 579.415C865.116 580.123 860.846 573.438 861.09 558.922C861.509 533.931 861.429 508.915 861.349 483.91V483.905V483.9V483.895V483.89V483.885C861.317 473.893 861.286 463.902 861.286 453.916L861.237 453.867ZM925.164 383.579V523.35C956.737 525.571 986.944 526.083 1004.1 495.928C1020.44 467.188 1020.1 435.887 1002.76 407.683C985.487 379.581 956.664 381.491 927.315 383.437L927.285 383.439L927.255 383.441L927.225 383.443L927.196 383.445L927.167 383.446C926.5 383.491 925.832 383.535 925.164 383.579ZM347.208 579.025V495.928H347.184C348.402 495.453 349.614 494.978 350.826 494.503L351.951 494.062L352.975 493.661C353.476 493.465 353.977 493.269 354.48 493.074C357.685 498.248 360.895 503.417 364.104 508.583L364.114 508.599C371.673 520.771 379.229 532.936 386.712 545.162C409.452 582.343 423.36 587.515 469.768 574.219C451.822 544.962 434.217 516.216 416.612 487.471L416.577 487.413C417.741 486.415 418.717 485.549 419.581 484.783C421.125 483.412 422.312 482.359 423.58 481.436C456.153 457.722 467.792 422.322 456.324 381.822C447.247 349.813 420.017 330.198 380.075 328.417C354.236 327.27 328.274 326.831 302.484 328.222C296.408 328.563 285.794 337.468 285.721 342.543C284.648 416.881 284.77 491.219 285.624 565.558C285.672 570.096 293.822 577.854 298.824 578.415C309.694 579.63 320.725 579.425 332.498 579.205H332.499H332.5H332.5H332.501L332.509 579.205C337.275 579.116 342.162 579.025 347.208 579.025ZM364.423 438.911C359.279 440.642 353.913 442.449 348.38 444.572V377.943C353.651 379.76 358.815 381.301 363.807 382.792C375.844 386.386 386.877 389.68 395.983 395.802C400.888 399.095 401.181 421.273 396.349 424.761C387.425 431.167 376.541 434.831 364.423 438.911ZM1355.16 576.634C1313.18 581.611 1292.18 565.151 1292.18 527.254C1292.18 510.851 1292.23 494.448 1292.27 478.046V478.024V478.022V478.021C1292.39 435.953 1292.5 393.889 1291.87 351.838C1291.6 333.906 1295.99 325.709 1315.56 327.124C1328.58 328.065 1341.66 327.999 1354.74 327.933H1354.74C1365.05 327.882 1375.36 327.83 1385.64 328.27C1426.43 330.051 1453.27 348.398 1463.2 380.066C1475.74 420.077 1463.71 457.307 1430.41 481.826C1429.11 482.774 1427.94 483.911 1426.49 485.329L1426.49 485.33C1425.74 486.067 1424.91 486.879 1423.94 487.779C1430 497.589 1436.06 507.398 1442.25 517.409C1454.18 536.703 1466.56 556.745 1480.28 578.976C1473.42 578.976 1467.07 579.1 1461.08 579.216C1447.15 579.487 1435.19 579.719 1423.43 578.269C1416.94 577.464 1409.86 569.852 1405.74 563.582C1394.57 546.645 1384.01 529.303 1373.44 511.958L1373.44 511.954L1373.44 511.949L1373.43 511.944C1369.57 505.607 1365.71 499.27 1361.82 492.952C1360.71 493.305 1359.6 493.653 1358.49 494.001C1357.92 494.18 1357.35 494.359 1356.77 494.539C1356.53 494.617 1356.28 494.694 1356.04 494.772C1355.74 494.864 1355.45 494.957 1355.16 495.05V576.61V576.634ZM1355.99 377.772V443.938C1361.45 442.021 1366.79 440.452 1371.92 438.948C1383.75 435.471 1394.42 432.337 1402.71 426.054C1408.08 421.98 1408.08 399.047 1402.79 395.119C1394.42 388.906 1383.7 385.881 1371.83 382.536L1371.83 382.536C1366.73 381.1 1361.43 379.604 1356.01 377.772H1355.99ZM1175.29 381.042V424.249H1247.44V478.46H1175.55V523.912H1252.63V579.025C1242.88 579.025 1233.19 579.051 1223.54 579.076H1223.54H1223.53H1223.53H1223.53C1190.18 579.165 1157.38 579.253 1124.58 578.269C1120.19 578.147 1112.46 567.656 1112.38 561.923C1111.55 489.243 1111.55 416.54 1112.46 343.86C1112.53 338.395 1120.87 328.514 1125.58 328.368C1157.62 327.429 1189.66 327.516 1222.56 327.606C1232.39 327.633 1242.29 327.66 1252.29 327.66V381.042H1175.29ZM1488.89 538.77C1499.87 526.229 1510.1 514.543 1517.91 505.614C1524.27 507.813 1530.32 510.093 1536.17 512.298C1550.17 517.578 1563.04 522.428 1576.34 524.717C1581.27 525.572 1587.17 520.852 1593.06 516.137C1595.74 513.989 1598.42 511.843 1601.01 510.225C1599.43 507.872 1598 505.267 1596.58 502.662C1593.44 496.92 1590.3 491.175 1585.44 488.121C1576.87 482.714 1567.59 478.449 1558.29 474.181C1550.9 470.784 1543.5 467.385 1536.45 463.407C1503.75 444.962 1489.63 414.759 1497.12 381.993C1504.85 348.081 1531.59 326.343 1569.66 324.342C1603.26 322.586 1631.51 334.614 1656.15 361.914C1654.44 364.066 1652.65 366.175 1650.87 368.283C1646.95 372.916 1643.03 377.547 1639.83 382.627C1630 398.193 1619.43 402.804 1604.06 389.093C1599.47 385.018 1591.28 381.554 1585.79 382.725C1578.63 384.251 1571.85 387.574 1565.08 390.897L1565.07 390.898C1562.21 392.302 1559.35 393.705 1556.46 394.972C1558.23 397.474 1559.84 400.234 1561.45 402.994C1565.01 409.089 1568.56 415.183 1573.85 418.491C1582.92 424.154 1592.74 428.591 1602.57 433.034L1602.57 433.034C1610.23 436.496 1617.9 439.961 1625.22 444.011C1653.84 459.869 1665.13 484.681 1661.5 517.3C1657.89 549.675 1638.81 568.412 1609.72 578.025C1565.41 592.663 1521.86 578.805 1488.92 538.745L1488.89 538.77ZM561.682 578.952V327.514V327.49C556.716 327.49 551.955 327.345 547.356 327.206C536.59 326.88 526.709 326.58 517.152 328.222C510.906 329.295 501.268 338.029 501.195 343.421C500.146 416.905 500.243 490.39 501.024 563.874C501.073 568.949 508.149 577.756 512.687 578.269C524.287 579.54 536.039 579.329 547.954 579.115C552.506 579.034 557.082 578.952 561.682 578.952Z" fill="white"/>
</svg>
